<svg height="504pt" viewBox="-64 0 504 504" width="504pt" xmlns="http://www.w3.org/2000/svg"><g fill="#e6e9ed"><path d="m179.121094 152c-1.914063 2.078125-3.121094 4.871094-3.121094 8s1.199219 5.921875 3.121094 8h-51.121094v-16zm0 0"/><path d="m248 152v16h-51.121094s.082032 0 0-.078125c2-2.082031 3.121094-4.882813 3.121094-7.921875s-1.121094-5.839844-3.121094-7.921875l.082032-.078125zm0 0"/><path d="m12 421.359375c.558594.640625 61.359375 66.640625 176 66.640625 114.71875 0 175.519531-66 176.078125-66.640625l5.921875-7.039063c3.921875 11.199219 6 17.679688 6 17.679688s-64 72-188 72-188-72-188-72 2.078125-6.480469 6-17.679688zm0 0"/></g><path d="m144 0h88v4c0 24.320312-19.679688 44-44 44-24.238281 0-44-19.679688-44-44zm0 0" fill="#ec87c0"/><path d="m144 0h88v4c0 24.320312-19.679688 44-44 44-24.238281 0-44-19.679688-44-44zm0 0" fill="#d770ad"/><path d="m179.121094 152c2.160156-2.488281 5.359375-4 8.878906-4 3.601562 0 6.800781 1.601562 8.878906 4.078125 2 2.082031 3.121094 4.882813 3.121094 7.921875s-1.121094 5.839844-3.121094 7.921875c.082032.078125 0 .078125 0 .078125-2.160156 2.488281-5.359375 4-8.878906 4s-6.71875-1.511719-8.878906-4c-1.914063-2.078125-3.121094-4.871094-3.121094-8s1.199219-5.921875 3.121094-8zm0 0" fill="#ffce54"/><path d="m144 0v4c0 24.320312 19.761719 44 44 44 24.320312 0 44-19.679688 44-44v-4h48.078125c8.808594 0 16 7.128906 16 16v48c0 4.398438-3.597656 8-8 8h-26.957031l-13.121094 80.007812v-.007812h-51.039062l-.082032.078125c-2.078125-2.476563-5.277344-4.078125-8.878906-4.078125-3.519531 0-6.71875 1.511719-8.878906 4h-51.121094v.007812l-13.121094-80.007812h-26.878906c-4.398438 0-8-3.601562-8-8v-48c0-8.871094 7.199219-16 16-16zm0 0" fill="#ec87c0"/><path d="m188 488c-114.640625 0-175.441406-66-176-66.640625l-6-7.039063c15.199219-43.039062 58.480469-163.769531 122-246.328124v.007812h51.121094c2.160156 2.488281 5.359375 4 8.878906 4s6.71875-1.511719 8.878906-4h51.121094v-.007812c63.519531 82.558593 106.800781 203.289062 122 246.328124l-5.921875 7.039063c-.558594.640625-61.359375 66.640625-176.078125 66.640625zm0 0" fill="#ec87c0"/><path d="m188 459.984375c-2.207031 0-4-1.792969-4-4v-255.984375c0-2.207031 1.792969-4 4-4s4 1.792969 4 4v255.984375c0 2.207031-1.792969 4-4 4zm0 0" fill="#d770ad"/><path d="m76 431.671875c-.191406 0-.398438-.015625-.59375-.046875-2.183594-.320312-3.695312-2.359375-3.367188-4.535156.160157-1.089844 16.738282-109.625 72.335938-228.785156.9375-2.007813 3.304688-2.855469 5.320312-1.929688 2 .9375 2.863282 3.3125 1.929688 5.320312-55.121094 118.105469-71.511719 225.496094-71.679688 226.5625-.289062 1.980469-2 3.414063-3.945312 3.414063zm0 0" fill="#d770ad"/><path d="m300 431.671875c-1.945312 0-3.65625-1.433594-3.945312-3.414063-.167969-1.074218-16.589844-108.523437-71.679688-226.5625-.933594-2.007812-.070312-4.382812 1.929688-5.320312 2.015624-.925781 4.382812-.078125 5.320312 1.929688 55.597656 119.160156 72.175781 227.695312 72.335938 228.785156.328124 2.175781-1.175782 4.214844-3.367188 4.535156-.195312.03125-.402344.046875-.59375.046875zm0 0" fill="#d770ad"/></svg>