<svg height="512pt" viewBox="0 -37 512.00066 512" width="512pt" xmlns="http://www.w3.org/2000/svg"><path d="m115.492188 223.75v202.269531c0 6.882813-5.582032 12.464844-12.46875 12.464844h-10.6875c-6.539063 0-11.976563-5.050781-12.433594-11.570313-12.417969-176.679687-52.546875-255.136718-64.210938-272.753906 22.757813 10.855469 66.886719 33.488282 99.800782 69.589844zm0 0" fill="#0573cf"/><path d="m66.34375 3.15625c-27.996094 12.3125-66.4257812 45.042969-66.34375 131.921875.015625 13.957031 8.164062 26.648437 20.820312 32.535156 40.484376 18.816407 131.101563 73.199219 159.058594 192.023438 0 0 12.128906 75.8125 178.914063 78.84375h121.941406c17.425781 0 31.664063-14.253907 31.257813-31.675781-1.25-53.566407-50.933594-88.414063-100.339844-94.855469-.011719-.003907-41.371094-5.398438-41.371094-5.398438-7.394531-.960937-14.167969-4.640625-19.007812-10.3125l-241.460938-283.09375c-10.707031-12.546875-28.371094-16.628906-43.46875-9.988281zm0 0" fill="#0573cf"/><path d="m511.34375 413.855469c-2.960938 14.050781-15.601562 24.628906-30.609375 24.628906h-121.945313c-166.78125-3.03125-178.910156-78.851563-178.910156-78.851563-27.957031-118.816406-118.570312-173.207031-159.058594-192.015624-12.65625-5.890626-20.804687-18.578126-20.81640575-32.535157-.01171875-9.589843.45312475-18.535156 1.31640575-26.847656 2.875 10.503906 10.257813 19.4375 20.421876 24.164063 42.269531 19.644531 149.515624 72.984374 178.707031 197.054687 0 0 .039062 82.601563 174.191406 85.769531h127.320313c3.257812 0 6.402343-.472656 9.382812-1.367187zm0 0" fill="#005aaf"/><path d="m115.492188 223.75v202.269531c0 6.882813-5.582032 12.464844-12.46875 12.464844h-9.046876v-235.960937c7.226563 6.414062 14.453126 13.472656 21.515626 21.226562zm0 0" fill="#005aaf"/><path d="m358.820312 302.59375c-7.433593 19.488281-33.03125 23.886719-46.542968 7.996094l-245.933594-307.433594c15.09375-6.640625 32.761719-2.558594 43.460938 9.992188l241.472656 283.089843c.964844 1.144531 4.070312 3.949219 4.070312 3.949219.234375.195312 1.921875 1.429688 2.238282 1.632812.21875.144532 1.039062.660157 1.234374.773438zm0 0" fill="#e8dacd"/><path d="m351.347656 313.4375c-10.917968 9.601562-28.617187 9.457031-39.070312-2.847656l-245.933594-307.433594c5.921875-2.597656 12.234375-3.554688 18.371094-3l242.980468 303.75c6.28125 7.394531 15.183594 10.394531 23.652344 9.53125zm0 0" fill="#e5ccb7"/></svg>