<?xml version="1.0" encoding="iso-8859-1"?>
<!-- Generator: Adobe Illustrator 19.0.0, SVG Export Plug-In . SVG Version: 6.00 Build 0)  -->
<svg version="1.1" id="Capa_1" xmlns="http://www.w3.org/2000/svg" xmlns:xlink="http://www.w3.org/1999/xlink" x="0px" y="0px"
	 viewBox="0 0 32.709 32.709" style="enable-background:new 0 0 32.709 32.709;" xml:space="preserve">
<path style="fill-rule:evenodd;clip-rule:evenodd;" d="M27.295,17.473c-0.441,5.675-5.144,10.158-10.945,10.158
	c-6.092,0-11.031-4.927-11.031-11.004c0-6.077,4.939-11.004,11.031-11.004c2.145,0,4.13,0.637,5.823,1.693l1.019,0.693l-0.891,0.925
	l-2.632,2.619l-0.376,0.375l-0.627,0.625h0.627h11.969v-0.031h0.031L31.29,0l-0.527,0.515l-3.908,3.889
	C24.041,1.971,20.386,0.49,16.377,0.49C7.494,0.49,0.294,7.703,0.294,16.6s7.201,16.11,16.083,16.11
	c8.588,0,15.584-6.748,16.039-15.237H27.295z"/>
<g>
</g>
<g>
</g>
<g>
</g>
<g>
</g>
<g>
</g>
<g>
</g>
<g>
</g>
<g>
</g>
<g>
</g>
<g>
</g>
<g>
</g>
<g>
</g>
<g>
</g>
<g>
</g>
<g>
</g>
</svg>
