<?xml version="1.0"?>
<svg xmlns="http://www.w3.org/2000/svg" height="512px" viewBox="0 -8 425.2711 425" width="512px"><path d="m240.898438 88.835938c0 48.988281-39.710938 88.699218-88.699219 88.699218s-88.699219-39.710937-88.699219-88.699218c0-48.988282 39.710938-88.699219 88.699219-88.699219s88.699219 39.710937 88.699219 88.699219zm0 0" fill="#cccccc"/><path d="m236.699219 289.234375c1.453125-7.90625 4.226562-15.511719 8.199219-22.5-26.488282-20.449219-59.035157-31.496094-92.5-31.398437h-.296876c-41.101562.101562-79.402343 16.101562-107.703124 45.101562-27.199219 28-42.898438 65.699219-44.398438 107l275-.5c-33.199219-30.101562-44.101562-67.300781-38.300781-97.703125zm0 0" fill="#cccccc"/><path d="m381 252.734375c-12.398438 0-26.101562 5.203125-39.699219 15.101563-2.480469 1.820312-5.867187 1.78125-8.300781-.101563-13.800781-10.296875-27.199219-15.5-39.898438-15.5-11.007812-.128906-21.59375 4.242187-29.300781 12.101563l.097657.101562-3.097657 3.398438c-5.332031 7.015624-8.902343 15.214843-10.402343 23.898437-7.296876 38 16.703124 88.800781 86.703124 116.703125 50.5-20.5 96.796876-64.5 86.796876-116.601562-4.796876-24.101563-21.296876-39.101563-42.898438-39.101563zm0 0" fill="#cccccc"/></svg>
