<?xml version="1.0"?>
<svg xmlns="http://www.w3.org/2000/svg" id="Layer_3" enable-background="new 0 0 64 64" height="512px" viewBox="0 0 64 64" width="512px"><g><g><path d="m3 32h-2c0-17.094 13.907-31 31-31v2c-15.991 0-29 13.01-29 29z" data-original="#000000" class="active-path" data-old_color="#000000" fill="#0F8CEF"/><path d="m32 63v-2c15.991 0 29-13.01 29-29h2c0 17.094-13.907 31-31 31z" data-original="#000000" class="active-path" data-old_color="#000000" fill="#0F8CEF"/><g><path d="m22.4 9.996-.8-1.832c-3.135 1.369-5.934 3.318-8.319 5.792l1.439 1.389c2.202-2.284 4.786-4.084 7.68-5.349z" data-original="#000000" class="active-path" data-old_color="#000000" fill="#0F8CEF"/><path d="m26.239 8.695-.479-1.941c-.704.173-1.404.377-2.082.606l.642 1.895c.625-.211 1.27-.4 1.919-.56z" data-original="#000000" class="active-path" data-old_color="#000000" fill="#0F8CEF"/><path d="m30.078 8.076-.156-1.994c-.683.054-1.383.138-2.08.249l.316 1.975c.644-.104 1.29-.181 1.92-.23z" data-original="#000000" class="active-path" data-old_color="#000000" fill="#0F8CEF"/><path d="m53.92 11.494c-.375.375-1.039.375-1.414 0-5.24-5.241-12.134-8.229-19.506-8.477v3.002c6.57.247 12.71 2.923 17.385 7.597.391.391.391 1.023 0 1.414l-1.971 1.97h7.586v-7.586z" data-original="#000000" class="active-path" data-old_color="#000000" fill="#0F8CEF"/><path d="m41.6 54.004.801 1.832c3.135-1.369 5.934-3.318 8.319-5.792l-1.439-1.389c-2.203 2.284-4.787 4.084-7.681 5.349z" data-original="#000000" class="active-path" data-old_color="#000000" fill="#0F8CEF"/><path d="m37.761 55.305.479 1.941c.704-.173 1.404-.377 2.082-.606l-.642-1.895c-.625.211-1.27.4-1.919.56z" data-original="#000000" class="active-path" data-old_color="#000000" fill="#0F8CEF"/><path d="m33.922 55.924.156 1.994c.683-.054 1.383-.138 2.08-.249l-.316-1.975c-.644.104-1.29.181-1.92.23z" data-original="#000000" class="active-path" data-old_color="#000000" fill="#0F8CEF"/><path d="m13.615 48.971 1.971-1.971h-7.586v7.586l2.08-2.08c.188-.188.442-.293.707-.293s.52.105.707.293c5.241 5.241 12.135 8.229 19.506 8.478v-3.002c-6.57-.247-12.71-2.923-17.385-7.597-.39-.391-.39-1.024 0-1.414z" data-original="#000000" class="active-path" data-old_color="#000000" fill="#0F8CEF"/><path d="m47 32c0-8.271-6.729-15-15-15s-15 6.729-15 15 6.729 15 15 15 15-6.729 15-15zm-26 0h-2c0-7.168 5.832-13 13-13v2c-6.065 0-11 4.935-11 11zm10 9v-2.142c-1.72-.447-3-1.999-3-3.858h2c0 1.103.897 2 2 2s2-.897 2-2-.897-2-2-2c-2.206 0-4-1.794-4-4 0-1.859 1.28-3.411 3-3.858v-2.142h2v2.142c1.72.447 3 1.999 3 3.858h-2c0-1.103-.897-2-2-2s-2 .897-2 2 .897 2 2 2c2.206 0 4 1.794 4 4 0 1.859-1.28 3.411-3 3.858v2.142zm1 4v-2c6.065 0 11-4.935 11-11h2c0 7.168-5.832 13-13 13z" data-original="#000000" class="active-path" data-old_color="#000000" fill="#0F8CEF"/></g></g></g> </svg>
