<svg width="66px" height="55px" viewBox="0 0 66 55" version="1.1" xmlns="http://www.w3.org/2000/svg"
     xmlns:xlink="http://www.w3.org/1999/xlink">
  <g stroke="none" stroke-width="1" fill="none" fill-rule="evenodd">
    <g transform="translate(-355.000000, -607.000000)">
      <g transform="translate(355.000000, 607.000000)">
        <g>
          <path
            d="M8.46019108,19.1019433 C8.46019108,19.7499586 8.49886624,20.388302 8.58588535,21.0073017 C7.08722293,20.8041924 5.55955414,19.3727557 5.55955414,18.1347563 C5.55955414,16.8000382 6.85517197,16.2003823 8.46019108,16.2003823 L8.46019108,19.1019433 L8.46019108,19.1019433 Z"
            fill="#A18369"></path>
          <path
            d="M29.7315287,16.2003823 C31.3365478,16.2003823 32.6321656,16.8000382 32.6321656,18.1347563 C32.6321656,19.3727557 31.1044968,20.8041924 29.6058344,21.0073017 C29.6928535,20.388302 29.7315287,19.7499586 29.7315287,19.1019433 L29.7315287,16.2003823 L29.7315287,16.2003823 Z"
            fill="#A18369"></path>
          <path
            d="M26.4344713,34.4995604 C27.4206879,35.0895444 28.2812102,35.5441223 28.2812102,35.5441223 C37.4375541,38.4456833 37.4665605,43.7652119 37.4665605,43.7652119 L37.4665605,46.1831794 L0.725159236,46.1831794 L0.725159236,43.7652119 C0.725159236,43.7652119 0.812178344,38.4746989 9.91050955,35.5441223 C9.91050955,35.5441223 10.7710318,35.0895444 11.7572484,34.4995604 C12.695121,33.92892 13.7490191,33.2228735 14.261465,32.6425613 C14.261465,32.6425613 16.2532357,36.9949028 19.0958599,36.9949028 C21.9384841,36.9949028 23.9302548,32.6425613 23.9302548,32.6425613 C24.4427006,33.2228735 25.4965987,33.92892 26.4344713,34.4995604 L26.4344713,34.4995604 Z"
            fill="#FF0455"></path>
          <path
            d="M28.7936561,24.0829564 L30.6984076,33.1261548 C30.6984076,33.1261548 27.8557834,33.184186 26.4344713,34.4995604 C25.4965987,33.92892 24.4427006,33.2228735 23.9302548,32.6425613 L23.9302548,29.5669067 C26.1540764,28.4159541 27.8267771,26.4719083 28.7936561,24.0829564 L28.7936561,24.0829564 Z"
            fill="#000000"></path>
          <path
            d="M14.261465,29.5669067 L14.261465,32.6425613 C13.7490191,33.2228735 12.695121,33.92892 11.7572484,34.4995604 C10.3359363,33.184186 7.4933121,33.1261548 7.4933121,33.1261548 L9.39806369,24.0829564 C10.3649427,26.4719083 12.0376433,28.4159541 14.261465,29.5669067 L14.261465,29.5669067 Z"
            fill="#000000"></path>
          <path
            d="M14.261465,32.6425613 L14.261465,29.5669067 C15.6731083,30.3019688 17.297465,30.7081873 19.0958599,30.7081873 C20.8942548,30.7081873 22.5186115,30.3019688 23.9302548,29.5669067 L23.9302548,32.6425613 C23.9302548,32.6425613 21.9384841,36.9949028 19.0958599,36.9949028 C16.2532357,36.9949028 14.261465,32.6425613 14.261465,32.6425613 L14.261465,32.6425613 Z"
            fill="#846954"></path>
          <path
            d="M29.7315287,16.2003823 L29.7315287,19.1019433 C29.7315287,19.7499586 29.6928535,20.388302 29.6058344,21.0073017 C29.4608025,22.0905511 29.1804076,23.1254412 28.7936561,24.0829564 C27.8267771,26.4719083 26.1540764,28.4159541 23.9302548,29.5669067 C22.5186115,30.3019688 20.8942548,30.7081873 19.0958599,30.7081873 C17.297465,30.7081873 15.6731083,30.3019688 14.261465,29.5669067 C12.0376433,28.4159541 10.3649427,26.4719083 9.39806369,24.0829564 C9.0113121,23.1254412 8.7309172,22.0905511 8.58588535,21.0073017 C8.49886624,20.388302 8.46019108,19.7499586 8.46019108,19.1019433 L8.46019108,16.2003823 L8.46019108,13.7824148 C8.46019108,13.7824148 12.9078344,12.2349156 16.6786624,8.46288627 C16.6786624,8.46288627 18.7767898,12.8152278 29.7315287,12.8152278 L29.7315287,13.7824148 L29.7315287,16.2003823 L29.7315287,16.2003823 L29.7315287,16.2003823 Z"
            fill="#A18369"></path>
          <path
            d="M29.7315287,6.04491876 L29.7315287,12.8152278 C18.7767898,12.8152278 16.6786624,8.46288627 16.6786624,8.46288627 C12.9078344,12.2349156 8.46019108,13.7824148 8.46019108,13.7824148 L8.46019108,6.04491876 C8.46019108,6.04491876 9.50442038,0.725390252 19.0958599,0.725390252 C28.6872994,0.725390252 29.7315287,6.04491876 29.7315287,6.04491876 L29.7315287,6.04491876 Z"
            fill="#000000"></path>
          <path
            d="M28.5639256,34.8728946 C28.4521544,34.8130257 28.1807515,34.6665936 27.8255201,34.4670629 C28.864625,34.0049409 30.174746,33.8636349 30.7132976,33.8514484 L31.5886131,33.8335554 L29.5475316,24.143599 C29.862154,23.3249719 30.0966222,22.4754916 30.2459083,21.6110198 C31.9095203,21.133713 33.3573248,19.571706 33.3573248,18.1347563 C33.3573248,16.6798169 32.2639781,15.7142741 30.4566879,15.5142598 L30.4566879,5.97441083 L30.4430549,5.90516024 C30.4304855,5.84122918 30.1172167,4.32313246 28.498758,2.84884932 C26.4234489,0.958482319 23.2598209,0 19.0958599,0 C14.9318989,0 11.7682708,0.958482319 9.69296178,2.84884932 C8.07440637,4.32313246 7.76113758,5.84122918 7.74856815,5.90516024 L7.73503185,5.97441083 L7.73503185,15.5142598 C5.92774166,15.7142741 4.8343949,16.6798169 4.8343949,18.1347563 C4.8343949,19.571706 6.28229618,21.1338097 7.94600484,21.6110198 C8.09567771,22.4769423 8.32995248,23.3255522 8.64418815,24.1434055 L6.78362293,32.9766277 L6.60436357,33.831621 L7.47764866,33.8514484 C8.01678038,33.8636349 9.3269014,34.0050377 10.3661029,34.4670629 C10.0090345,34.6676575 9.73695478,34.8144765 9.62624713,34.873765 C0.204204841,37.9328808 0.00386751592,43.5166448 0,43.7534122 L0,46.9085696 L38.1917197,46.9085696 L38.1917197,43.7612464 C38.1903661,43.5230282 38.0497819,37.9040586 28.5639256,34.8728946 L28.5639256,34.8728946 Z M26.3842903,33.614681 C25.4619845,33.0311771 24.9440274,32.6225406 24.655414,32.3488266 L24.655414,29.9968213 C26.2232083,29.1005291 27.5283982,27.8268405 28.5082334,26.2463602 L29.8191279,32.4700152 C28.908618,32.5809515 27.4633273,32.8693667 26.3842903,33.614681 L26.3842903,33.614681 Z M14.9866242,30.6886501 C16.2611641,31.1826893 17.6381931,31.4335776 19.0958599,31.4335776 C20.5538167,31.4335776 21.9311358,31.1825925 23.2050955,30.6887469 L23.2050955,32.4758183 C23.0480744,32.7892836 22.6182,33.5981421 21.9919525,34.3921059 C21.3163941,35.24855 20.2655901,36.2695126 19.0958599,36.2695126 C17.2298801,36.2695126 15.5607569,33.6532717 14.9866242,32.4787198 L14.9866242,30.6886501 L14.9866242,30.6886501 Z M31.9070064,18.1347563 C31.9070064,18.727255 31.2662557,19.5339857 30.4309689,19.9791819 C30.4469224,19.6925077 30.4566879,16.972391 30.4566879,16.972391 C31.749115,17.1536418 31.9070064,17.8221615 31.9070064,18.1347563 L31.9070064,18.1347563 Z M29.0063694,19.1019433 C29.0063694,19.7389327 28.9664373,20.3460359 28.8871532,20.9110666 C28.7537239,21.9077528 28.4960507,22.8835478 28.1214818,23.8107899 C27.1936647,26.1033133 25.6291578,27.8709442 23.5954246,28.9235339 C22.2454682,29.6263887 20.7316257,29.9827971 19.0958599,29.9827971 C17.4601907,29.9827971 15.9462516,29.6263887 14.5947482,28.9226634 C12.5626586,27.8708475 10.998055,26.1032166 10.0704313,23.8111768 C9.69576573,22.883451 9.43809248,21.9076561 9.30398637,20.9062306 C9.22528242,20.3463261 9.18535032,19.7393195 9.18535032,19.1019433 L9.18535032,14.2810964 C10.3876643,13.794021 13.5915145,12.3338588 16.582748,9.56180414 C17.7393287,10.8781457 20.9892023,13.3904139 29.0063694,13.5339444 L29.0063694,19.1019433 L29.0063694,19.1019433 Z M10.7512108,3.84834036 C12.5319118,2.2798532 15.4174655,1.4507805 19.0958599,1.4507805 C22.7742543,1.4507805 25.6598079,2.2798532 27.4406056,3.84834036 C28.5939955,4.86427359 28.9386879,5.89365072 29.0063694,6.13293278 L29.0063694,12.0823902 C24.0688085,11.9897337 21.1760033,10.9610336 19.601731,10.0909522 C17.9096927,9.15577904 17.3692074,8.21518968 17.3297587,8.1434244 L16.9093597,7.20631692 L16.1658298,7.95008372 C13.5939317,10.5227044 10.6644818,12.0387701 9.18525363,12.7004227 L9.18525363,6.13419012 C9.2558358,5.88523619 9.60236522,4.86011469 10.7512108,3.84834036 L10.7512108,3.84834036 Z M6.28471338,18.1347563 C6.28471338,17.8221615 6.44260471,17.1536418 7.73503185,16.972391 C7.73503185,16.972391 7.74479732,19.6927978 7.76075083,19.9791819 C6.92546408,19.533889 6.28471338,18.727255 6.28471338,18.1347563 L6.28471338,18.1347563 Z M9.68348637,26.246457 C10.6634182,27.8272274 11.9688015,29.1010127 13.5363057,29.9968213 L13.5363057,32.3487299 C13.2474023,32.622734 12.7291552,33.0317574 11.8075261,33.614681 C10.7283925,32.8693667 9.28310178,32.5809515 8.37259185,32.4699184 L9.68348637,26.246457 L9.68348637,26.246457 Z M36.7414013,45.4577891 L1.45031847,45.4577891 L1.45031847,43.7740133 C1.45573299,43.6274844 1.71843401,38.9448486 10.132795,36.2345971 C10.132795,36.2345971 11.1380591,35.715121 12.1341378,35.1193338 C12.9379043,34.6302273 13.5761411,34.1968308 14.0600641,33.8107298 C14.8624769,35.1903253 16.6653195,37.7202931 19.0958599,37.7202931 C21.5264969,37.7202931 23.3292428,35.1903253 24.1316557,33.8107298 C24.616062,34.197121 25.2555558,34.6312912 26.0623196,35.1221386 C27.0536606,35.7152177 28.0623088,36.235661 28.0623088,36.235661 C30.5235959,37.0156006 33.8366068,38.4849511 35.6422532,41.0556375 C36.6785541,42.5309845 36.7390808,43.7113395 36.7414013,43.7730461 L36.7414013,45.4577891 L36.7414013,45.4577891 Z"
            fill="#231F20"></path>
          <path
            d="M19.8210191,18.1347563 L18.3707006,18.1347563 L18.3707006,22.0035043 C18.3707006,22.4041132 18.6953786,22.7288946 19.0958599,22.7288946 L21.0296178,22.7288946 L21.0296178,21.278114 L19.8210191,21.278114 L19.8210191,18.1347563 L19.8210191,18.1347563 Z"
            fill="#231F20"></path>
        </g>
        <g transform="translate(27.745223, 7.148773)">
          <path
            d="M37.4665605,43.7652119 L37.4665605,46.1831794 L0.725159236,46.1831794 L0.725159236,43.7652119 C0.725159236,43.7652119 0.812178344,38.4746989 9.91050955,35.5441223 C9.91050955,35.5441223 13.2075669,33.8225295 14.261465,32.6425613 C14.261465,32.6425613 16.2532357,35.0605288 19.0958599,35.0605288 C21.9384841,35.0605288 23.9302548,32.6425613 23.9302548,32.6425613 C24.9841529,33.8225295 28.2812102,35.5441223 28.2812102,35.5441223 C37.4375541,38.4456833 37.4665605,43.7652119 37.4665605,43.7652119 L37.4665605,43.7652119 Z"
            fill="#50506A"></path>
          <path
            d="M11.8442675,9.43007327 C11.8442675,12.2929468 8.46019108,12.8152278 8.46019108,12.8152278 L8.46019108,7.97929277 C8.46019108,7.97929277 8.90495541,0.725390252 19.0958599,0.725390252 C29.2867643,0.725390252 29.7315287,7.97929277 29.7315287,7.97929277 L29.7315287,12.8152278 C29.7315287,12.8152278 26.3474522,12.3703218 26.3474522,9.43007327 L19.0958599,12.3316343 L11.8442675,9.43007327 L11.8442675,9.43007327 Z"
            fill="#191937"></path>
          <path
            d="M14.261465,29.5669067 C15.6731083,30.3019688 17.297465,30.7081873 19.0958599,30.7081873 C20.8942548,30.7081873 22.5186115,30.3019688 23.9302548,29.5669067 L23.9302548,32.6425613 C23.9302548,32.6425613 21.9384841,35.0605288 19.0958599,35.0605288 C16.2532357,35.0605288 14.261465,32.6425613 14.261465,32.6425613 L14.261465,29.5669067 L14.261465,29.5669067 Z"
            fill="#F6E6C1"></path>
          <path
            d="M8.46019108,19.1019433 C8.46019108,19.7499586 8.49886624,20.388302 8.58588535,21.0073017 C7.08722293,20.8041924 5.55955414,19.3727557 5.55955414,18.1347563 C5.55955414,16.8000382 6.85517197,16.2003823 8.46019108,16.2003823 L8.46019108,19.1019433 L8.46019108,19.1019433 Z"
            fill="#FFE1B2"></path>
          <path
            d="M29.7315287,16.2003823 C31.3365478,16.2003823 32.6321656,16.8000382 32.6321656,18.1347563 C32.6321656,19.3727557 31.1044968,20.8041924 29.6058344,21.0073017 C29.6928535,20.388302 29.7315287,19.7499586 29.7315287,19.1019433 L29.7315287,16.2003823 L29.7315287,16.2003823 Z"
            fill="#FFE1B2"></path>
          <path
            d="M29.7315287,16.2003823 L29.7315287,19.1019433 C29.7315287,19.7499586 29.6928535,20.388302 29.6058344,21.0073017 C29.0837197,24.7890029 27.0339363,27.9613762 23.9302548,29.5669067 C22.5186115,30.3019688 20.8942548,30.7081873 19.0958599,30.7081873 C17.297465,30.7081873 15.6731083,30.3019688 14.261465,29.5669067 C11.1577834,27.9613762 9.108,24.7890029 8.58588535,21.0073017 C8.49886624,20.388302 8.46019108,19.7499586 8.46019108,19.1019433 L8.46019108,16.2003823 L8.46019108,12.8152278 C8.46019108,12.8152278 11.8442675,12.2929468 11.8442675,9.43007327 L19.0958599,12.3316343 L26.3474522,9.43007327 C26.3474522,12.3703218 29.7315287,12.8152278 29.7315287,12.8152278 L29.7315287,16.2003823 L29.7315287,16.2003823 Z"
            fill="#F6E6C1"></path>
          <path
            d="M28.5617018,34.8722175 C27.6979888,34.4170593 25.5714352,33.2116542 24.655414,32.3467955 L24.655414,29.9965311 C27.5933725,28.3162371 29.6023536,25.3015153 30.2443613,21.61131 C31.9086501,21.1346802 33.3573248,19.5720929 33.3573248,18.1347563 C33.3573248,16.6797202 32.2639781,15.7142741 30.4566879,15.5142598 L30.4566879,7.97929277 L30.4553343,7.93489888 C30.4502098,7.85191424 30.3133964,5.87827244 28.8115433,3.91188455 C26.3420377,0.678771838 22.1651205,0 19.0958599,0 C16.0265992,0 11.849682,0.678771838 9.38017643,3.91188455 C7.87832331,5.87827244 7.74150994,7.85181752 7.73638548,7.93489888 L7.73503185,12.1931331 L7.73503185,15.5141631 C5.92774166,15.7141774 4.8343949,16.6797202 4.8343949,18.1346596 C4.8343949,19.5719962 6.28306968,21.1345835 7.94735847,21.61131 C8.59004293,25.3028693 10.5993141,28.3173978 13.5363057,29.9965311 L13.5363057,32.3466988 C12.6197045,33.212041 10.4913138,34.4184134 9.62856764,34.8728946 C0.203141274,37.9317202 0.00396420382,43.5164514 9.66878981e-05,43.7532187 L0,46.9085696 L38.1917197,46.9085696 L38.1917197,43.7612464 C38.1903661,43.5230282 38.0510389,37.9030914 28.5617018,34.8722175 L28.5617018,34.8722175 Z M14.9866242,32.3616902 L14.9866242,30.6886501 C16.2611641,31.182786 17.6381931,31.4336743 19.0958599,31.4336743 C20.5538167,31.4336743 21.9311358,31.1826893 23.2050955,30.6888436 L23.2050955,32.3632377 C22.7090866,32.8818434 21.1372315,34.3351386 19.0958599,34.3351386 C17.0676378,34.3351386 15.4849536,32.8790385 14.9866242,32.3616902 L14.9866242,32.3616902 Z M31.9070064,18.1347563 C31.9070064,18.727255 31.2662557,19.533889 30.4309689,19.9791819 C30.4469224,19.6926044 30.4566879,16.972391 30.4566879,16.972391 C31.749115,17.1536418 31.9070064,17.8221615 31.9070064,18.1347563 L31.9070064,18.1347563 Z M10.5326962,4.79279847 C12.2263781,2.57513539 15.1074841,1.4507805 19.0958599,1.4507805 C28.2892353,1.4507805 28.9690479,7.55508455 29.0063694,8.00598713 L29.0063694,11.8790875 C28.1933209,11.5799365 27.0726115,10.901068 27.0726115,9.43007327 L27.0726115,8.35862351 L19.0958599,11.5503406 L11.1191083,8.35862351 L11.1191083,9.43007327 C11.1191083,10.8550299 10.0015896,11.5458916 9.18535032,11.8608076 L9.18535032,8.00666416 C9.20082038,7.83024925 9.36470637,6.32192112 10.5326962,4.79279847 L10.5326962,4.79279847 Z M6.28471338,18.1347563 C6.28471338,17.8221615 6.44260471,17.1536418 7.73503185,16.972391 C7.73503185,16.972391 7.74479732,19.6926044 7.76075083,19.9791819 C6.92546408,19.5337923 6.28471338,18.727255 6.28471338,18.1347563 L6.28471338,18.1347563 Z M9.30398637,20.9063274 C9.22528242,20.3463261 9.18535032,19.7393195 9.18535032,19.1019433 L9.18535032,13.3946695 C10.3895981,13.0485133 11.9774068,12.1589914 12.438608,10.4491982 L19.0958599,13.1129279 L25.7479873,10.4511326 C26.2020336,12.2015476 27.7940966,13.0781092 29.0063694,13.4058889 L29.0063694,19.1019433 C29.0063694,19.7393195 28.9664373,20.3463261 28.88754,20.9080683 C28.3888238,24.5202216 26.4605771,27.4413198 23.5955213,28.9235339 C22.2454682,29.6263887 20.731529,29.9827971 19.0958599,29.9827971 C17.4601907,29.9827971 15.9462516,29.6263887 14.5945548,28.9225667 C11.7312394,27.4413198 9.80299261,24.5202216 9.30398637,20.9063274 L9.30398637,20.9063274 Z M36.7414013,45.4577891 L1.45031847,45.4577891 L1.45031847,43.7740133 C1.45573299,43.6274844 1.71843401,38.9448486 10.132795,36.2345971 C10.132795,36.2345971 12.8845326,34.7954229 14.2369062,33.6618797 C14.7054558,34.1032071 15.462522,34.7170807 16.4369427,35.1714652 L16.4369427,44.0070086 L21.0296178,44.0070086 L21.0296178,42.5562281 L17.8872611,42.5562281 L17.8872611,35.6595077 C18.2706287,35.7396875 18.6743006,35.7859191 19.0958599,35.7859191 C21.3654149,35.7859191 23.1188499,34.4492666 23.9548135,33.6618797 C25.3071871,34.7954229 28.0622121,36.2355643 28.0622121,36.2355643 C30.5235959,37.0155039 33.8365101,38.4849511 35.6421566,41.0556375 C36.6784575,42.5309845 36.7389841,43.7113395 36.7414013,43.7730461 L36.7414013,45.4577891 L36.7414013,45.4577891 L36.7414013,45.4577891 Z"
            fill="#231F20"></path>
          <path
            d="M19.0958599,23.6960816 L21.0296178,23.6960816 L21.0296178,22.2453011 L19.8210191,22.2453011 L19.8210191,19.1019433 L18.3707006,19.1019433 L18.3707006,22.9706913 C18.3707006,23.3713969 18.6953786,23.6960816 19.0958599,23.6960816 L19.0958599,23.6960816 Z"
            fill="#231F20"></path>
          <rect fill="#231F20" x="18.6124204" y="37.2366996" width="1.93375796"
                height="1.4507805"></rect>
          <rect fill="#231F20" x="18.6124204" y="39.6546671" width="1.93375796"
                height="1.4507805"></rect>
        </g>
      </g>
    </g>
  </g>
</svg>
