<?xml version="1.0" encoding="UTF-8"?>
<svg width="39px" height="46px" viewBox="0 0 39 46" version="1.1" xmlns="http://www.w3.org/2000/svg" xmlns:xlink="http://www.w3.org/1999/xlink">
    <g stroke="none" stroke-width="1" fill="none" fill-rule="evenodd">
        <g>
            <path d="M28.2776786,34.4197674 L19.0934753,38.7523256 L9.90927198,34.4197674 C9.90927198,34.4197674 13.2059176,32.706 14.2596841,31.5410233 C14.4337005,31.7335814 16.3768846,33.9383721 19.0934753,33.9383721 C21.9357445,33.9383721 23.9272665,31.5313953 23.9272665,31.5313953 C24.981033,32.706 28.2776786,34.4197674 28.2776786,34.4197674 L28.2776786,34.4197674 Z" fill="#AFB6BB"></path>
            <path d="M37.4618819,42.6034884 L37.4618819,45.0104651 L19.0934753,45.0104651 L19.0934753,38.7523256 L28.2776786,34.4197674 C37.4328791,37.3081395 37.4618819,42.6034884 37.4618819,42.6034884 L37.4618819,42.6034884 Z" fill="#332E60"></path>
            <path d="M19.0934753,38.7523256 L19.0934753,45.0104651 L0.725068681,45.0104651 L0.725068681,42.6034884 C0.725068681,42.6034884 0.812076923,37.3370233 9.90927198,34.4197674 L19.0934753,38.7523256 L19.0934753,38.7523256 Z" fill="#332E60"></path>
            <path d="M18.6100962,9.39683721 C18.590761,12.2755814 8.45913462,12.7569767 8.45913462,12.7569767 C8.45913462,12.7569767 7.95642033,0.722093023 19.0934753,0.722093023 C30.2111951,0.722093023 29.7278159,12.7569767 29.7278159,12.7569767 C23.3858819,12.7569767 18.6100962,9.39683721 18.6100962,9.39683721 L18.6100962,9.39683721 Z" fill="#191937"></path>
            <path d="M29.7278159,15.1639535 C31.3326346,15.1639535 32.6280907,15.7608837 32.6280907,17.0895349 C32.6280907,18.321907 31.1006126,19.7468372 29.6021374,19.9490233 C29.679478,19.3328372 29.7278159,18.6973953 29.7278159,18.0523256 L29.7278159,15.1639535 L29.7278159,15.1639535 Z" fill="#FFD7A3"></path>
            <path d="M29.6021374,19.9490233 L29.6021374,19.9586512 C29.0800879,23.7231628 27.0305604,26.8714884 23.9272665,28.4697209 C23.9079313,28.4889767 23.8789286,28.4986047 23.8595934,28.5082326 C22.4674615,29.2110698 20.8626429,29.605814 19.0934753,29.605814 C17.3243077,29.605814 15.719489,29.2110698 14.3273571,28.5082326 C14.308022,28.4986047 14.2790192,28.4889767 14.2596841,28.4697209 C11.1563901,26.8714884 9.10686264,23.7231628 8.58481319,19.9586512 L8.58481319,19.9490233 C8.50747253,19.3328372 8.45913462,18.6973953 8.45913462,18.0523256 L8.45913462,15.1639535 L8.45913462,12.7569767 C8.45913462,12.7569767 18.590761,12.2755814 18.6100962,9.39683721 C18.6100962,9.39683721 23.3858819,12.7569767 29.7278159,12.7569767 L29.7278159,15.1639535 L29.7278159,18.0523256 C29.7278159,18.6973953 29.679478,19.3328372 29.6021374,19.9490233 L29.6021374,19.9490233 Z" fill="#A18369"></path>
            <path d="M23.9272665,28.4697209 L23.9272665,31.5313953 C23.9272665,31.5313953 21.9357445,33.9383721 19.0934753,33.9383721 C16.3768846,33.9383721 14.4337005,31.7335814 14.2596841,31.5410233 L14.2596841,31.5313953 L14.2596841,28.4697209 C14.2790192,28.4889767 14.308022,28.4986047 14.3273571,28.5082326 C15.719489,29.2110698 17.3243077,29.605814 19.0934753,29.605814 C20.8626429,29.605814 22.4674615,29.2110698 23.8595934,28.5082326 C23.8789286,28.4986047 23.9079313,28.4889767 23.9272665,28.4697209 L23.9272665,28.4697209 Z" fill="#A18369"></path>
            <path d="M8.45913462,18.0523256 C8.45913462,18.6973953 8.50747253,19.3328372 8.58481319,19.9490233 C7.08633791,19.7468372 5.55885989,18.321907 5.55885989,17.0895349 C5.55885989,15.7608837 6.85431593,15.1639535 8.45913462,15.1639535 L8.45913462,18.0523256 L8.45913462,18.0523256 Z" fill="#FFD7A3"></path>
            <path d="M28.5581351,33.7508205 C27.69453,33.2978274 25.5682419,32.0979014 24.6523352,31.236974 L24.6523352,28.8979702 C27.5931171,27.2240623 29.6024274,24.222466 30.2423247,20.5498047 C31.9057289,20.0746674 33.3531593,18.5198567 33.3531593,17.0895349 C33.3531593,15.6412088 32.2599491,14.6800549 30.4528846,14.4809498 L30.4528846,12.7706484 C30.4551082,12.7059488 30.4528846,12.03498 30.4528846,12.03498 L30.4475674,12.03498 C30.3849215,10.315147 29.9272582,6.03756419 27.0452552,3.05040977 C25.0925969,1.02633488 22.4171901,0 19.0934753,0 C15.7608663,0 13.0806257,1.02835674 11.127194,3.05637907 C8.23117302,6.06298186 7.79274816,10.3719516 7.73715956,12.0684851 L7.73406593,12.0686777 C7.73406593,12.0686777 7.73164904,12.7034456 7.73406593,12.7710335 L7.73406593,14.4809498 C5.92700143,14.6800549 4.83379121,15.6412088 4.83379121,17.0895349 C4.83379121,18.5198567 6.28122165,20.0746674 7.94462588,20.5498047 C8.58452316,24.222466 10.5940268,27.2240623 13.5346154,28.8979702 L13.5346154,31.2448688 C12.6165818,32.1007898 10.4898103,33.2993679 9.62736527,33.7515907 C0.203115907,36.7965126 0.00396370879,42.3559549 9.66758242e-05,42.5915498 L0,45.7325581 L38.1869505,45.7325581 L38.1869505,42.5995409 C38.1855971,42.3624056 38.0462872,36.768014 28.5581351,33.7508205 L28.5581351,33.7508205 Z M19.0934753,37.9533056 L11.4986225,34.3705688 C12.3550737,33.8779088 13.4614318,33.1955791 14.2392855,32.5491614 C15.1332468,33.3796647 16.8725416,34.6604651 19.0934753,34.6604651 C21.3627469,34.6604651 23.115963,33.3298884 23.9518221,32.5461767 C24.7300625,33.1955791 25.8341004,33.8779088 26.6889081,34.3703763 L19.0934753,37.9533056 L19.0934753,37.9533056 Z M23.2021978,31.2532451 C22.7062508,31.7695898 21.134592,33.2162791 19.0934753,33.2162791 C17.1340497,33.2162791 15.6049282,31.8915753 14.9847527,31.2564223 L14.9847527,29.5878098 C16.2627105,30.0787367 17.6399543,30.327907 19.0934753,30.327907 C20.5477697,30.327907 21.9255935,30.0785442 23.2021978,29.5880023 L23.2021978,31.2532451 L23.2021978,31.2532451 Z M31.903022,17.0895349 C31.903022,17.6798219 31.2613845,18.4835595 30.4252353,18.9266358 C30.4431204,18.6297112 30.4528846,15.932453 30.4528846,15.932453 C31.7451504,16.11288 31.903022,16.7783609 31.903022,17.0895349 L31.903022,17.0895349 Z M12.1737098,4.05614093 C13.8431079,2.32292512 16.1712551,1.44418605 19.0934753,1.44418605 C22.0038043,1.44418605 24.3252809,2.31907395 25.9935189,4.04458744 C28.4796344,6.61600884 28.919026,10.4483972 28.9917262,12.0186126 C23.3326135,11.7766633 19.0721099,8.83764837 19.0279291,8.80674279 L17.894405,8.00916698 L17.8850275,9.39202326 C17.8811604,9.9737414 16.7020054,10.818494 13.4044897,11.444693 C11.7741486,11.7542302 10.1263092,11.9126093 9.19435426,11.9845298 C9.26676445,10.3988135 9.7064461,6.6175493 12.1737098,4.05614093 L12.1737098,4.05614093 Z M6.28392857,17.0895349 C6.28392857,16.7783609 6.44180019,16.11288 7.73406593,15.932453 C7.73406593,15.932453 7.74383019,18.6296149 7.76171522,18.9266358 C6.92556602,18.4835595 6.28392857,17.6798219 6.28392857,17.0895349 L6.28392857,17.0895349 Z M9.30988187,19.9082972 L9.30427467,19.8593874 C9.22355036,19.2155693 9.1842033,18.6244158 9.1842033,18.0522293 L9.1842033,13.4343963 C10.1213787,13.3654605 11.8802987,13.2034228 13.6628075,12.8657721 C16.5415235,12.3205437 18.3043105,11.5395279 18.9971862,10.4946112 C20.5725187,11.4190828 24.3047856,13.2865116 29.0027473,13.4652056 L29.0027473,18.0523256 C29.0027473,18.6246084 28.9634969,19.2157619 28.8826759,19.8593874 L28.8770687,19.9039647 L28.8770687,19.9082972 C28.3688439,23.4749553 26.445285,26.3599577 23.5942183,27.8283098 L23.4946422,27.8796265 L23.4882616,27.8859809 C22.1593557,28.5480921 20.6810857,28.8837209 19.0934753,28.8837209 C17.5072184,28.8837209 16.0301084,28.5486698 14.6987857,27.8859809 L14.5927323,27.8283098 C11.7417622,26.3599577 9.81820335,23.4750516 9.30988187,19.9082972 L9.30988187,19.9082972 Z M1.45013736,42.6122498 C1.45555121,42.4680237 1.71377234,37.9061288 9.86122409,35.1960656 L18.3684066,39.209266 L18.3684066,44.2883721 L1.45013736,44.2883721 L1.45013736,42.6122498 L1.45013736,42.6122498 Z M36.7368132,44.2883721 L19.818544,44.2883721 L19.818544,39.209266 L28.3280467,35.1950065 C30.7566401,35.9916195 33.8973476,37.4394642 35.6377057,39.9063265 C36.6738772,41.3749674 36.7343963,42.5499572 36.7368132,42.6113833 L36.7368132,44.2883721 L36.7368132,44.2883721 L36.7368132,44.2883721 Z" fill="#231F20"></path>
            <path d="M19.0934753,21.6627907 L21.0269918,21.6627907 L21.0269918,20.2186047 L19.818544,20.2186047 L19.818544,17.0895349 L18.3684066,17.0895349 L18.3684066,20.9406977 C18.3684066,21.3394856 18.693044,21.6627907 19.0934753,21.6627907 L19.0934753,21.6627907 Z" fill="#231F20"></path>
        </g>
    </g>
</svg>
