<svg width="103px" height="153px" viewBox="0 0 103 153" version="1.1" xmlns="http://www.w3.org/2000/svg"
     xmlns:xlink="http://www.w3.org/1999/xlink">
  <g stroke="none" stroke-width="1" fill="none" fill-rule="evenodd">
    <g transform="translate(-1050.000000, -2008.000000)">
      <g transform="translate(1051.000000, 2009.000000)" stroke-width="1.5" stroke-linecap="round"
         stroke-linejoin="round">
        <path d="M20.2,24.75 L82.9187556,24.75" stroke="#1E1F1D"></path>
        <path d="M20.2,45 L82.9187556,45" stroke="#1E1F1D"></path>
        <path d="M20.2,65.25 L40.2743111,65.25" stroke="#1E1F1D"></path>
        <polyline stroke="#191937" fill-opacity="0.170629529" fill="#303050"
                  points="37.0894444 131.34375 0 131.34375 0 0 100.560089 0 100.560089 131.34375 95.3888889 131.34375"></polyline>
        <polyline stroke="#1E1F1D" fill="#FF0455"
                  points="82.9883333 120.27825 82.9883333 151.002 67.3333333 140.316185 51.6222222 151.002 51.6222222 120.27825"></polyline>
      </g>
      <path
        d="M1141.36471,2111.7385 C1141.36471,2099.18125 1131.21084,2089 1118.68236,2089 C1106.15611,2089 1096,2099.18125 1096,2111.7385 C1096,2124.298 1106.15611,2134.477 1118.68236,2134.477 C1131.21084,2134.477 1141.36471,2124.298 1141.36471,2111.7385 Z"
        stroke="#191937" stroke-width="1.5" fill="#191937" stroke-linecap="round"
        stroke-linejoin="round"></path>
      <path
        d="M1123.53937,2107.3985 C1122.5002,2107.3985 1121.70342,2106.80675 1121.18495,2105.59175 C1120.662,2104.40825 1119.86522,2103.81875 1118.75646,2103.81875 C1118.02702,2103.81875 1117.43897,2104.028 1117.02375,2104.40825 C1116.60629,2104.79075 1116.39755,2105.31275 1116.39755,2105.972 C1116.39755,2107.016 1116.95417,2107.745 1118.02702,2108.16125 L1120.73382,2109.20525 C1121.56426,2109.518 1122.25555,2109.833 1122.84584,2110.1435 C1123.43613,2110.4585 1124.02417,2110.8725 1124.65037,2111.3945 C1125.27209,2111.9165 1125.72546,2112.57575 1126.0352,2113.37675 C1126.34717,2114.1755 1126.52224,2115.08 1126.52224,2116.088 C1126.52224,2117.9285 1125.96786,2119.49225 1124.85686,2120.7455 C1123.74811,2121.99425 1122.25555,2122.7615 1120.38593,2123.03825 L1120.38593,2124.9845 C1120.38593,2125.50425 1120.21086,2125.92275 1119.90113,2126.2355 C1119.58691,2126.54825 1119.17393,2126.72375 1118.65097,2126.72375 C1118.13251,2126.72375 1117.68137,2126.54825 1117.33349,2126.2355 C1116.99009,2125.92275 1116.81502,2125.50425 1116.81502,2124.9845 L1116.81502,2122.93475 C1115.32246,2122.65575 1114.0768,2122.1 1113.06904,2121.26525 C1112.06353,2120.4305 1111.40366,2119.42475 1111.09393,2118.20525 C1110.8852,2117.375 1111.02435,2116.6415 1111.5114,2116.01825 C1111.99395,2115.39275 1112.62015,2115.08 1113.41693,2115.08 C1114.5616,2115.08 1115.35613,2115.73925 1115.80726,2117.02625 C1116.05191,2117.71925 1116.39755,2118.20525 1116.84869,2118.52025 C1117.29982,2118.833 1117.89011,2118.9725 1118.65097,2118.9725 C1119.55324,2118.9725 1120.24677,2118.76325 1120.76749,2118.31325 C1121.28595,2117.85875 1121.52835,2117.26925 1121.52835,2116.538 C1121.52835,2115.359 1121.00989,2114.558 1119.96846,2114.14175 L1116.63995,2112.85475 C1113.2082,2111.498 1111.47549,2109.30875 1111.47549,2106.25325 C1111.47549,2104.68725 1111.96029,2103.29675 1112.89622,2102.08175 C1113.83215,2100.8645 1115.14964,2100.0995 1116.81502,2099.75075 L1116.81502,2097.737 C1116.81502,2097.215 1116.99009,2096.79875 1117.33349,2096.486 C1117.68137,2096.171 1118.13251,2096 1118.65097,2096 C1119.17393,2096 1119.58691,2096.171 1119.90113,2096.486 C1120.21086,2096.79875 1120.38593,2097.215 1120.38593,2097.737 L1120.38593,2099.75075 C1121.59793,2099.8565 1122.81217,2100.41225 1123.99051,2101.3865 C1125.17109,2102.3585 1125.83095,2103.53975 1125.93195,2104.8965 C1125.96786,2105.558 1125.75913,2106.1475 1125.27209,2106.6335 C1124.78953,2107.12175 1124.197,2107.36475 1123.50571,2107.36475 L1123.53937,2107.3985 Z"
        fill="#FFFFFF"></path>
    </g>
  </g>
</svg>
