<?xml version="1.0"?>
<svg xmlns="http://www.w3.org/2000/svg" xmlns:xlink="http://www.w3.org/1999/xlink" version="1.1" id="Capa_1" x="0px" y="0px" viewBox="0 0 512 512" style="enable-background:new 0 0 512 512;" xml:space="preserve" width="512px" height="512px" class=""><g><path style="fill:#00344B" d="M469.842,356.443H42.158V68.219c0-3.993,3.237-7.23,7.23-7.23h413.224c3.993,0,7.23,3.237,7.23,7.23  V356.443z" data-original="#DFEAEF" class="" data-old_color="#00354B"/><path style="fill:#00344B" d="M462.612,60.988h-53.774c3.993,0,7.23,3.237,7.23,7.23v245.731c0,4.693-3.805,8.498-8.498,8.498  H42.158v33.996h427.685v-33.996V68.218C469.842,64.225,466.605,60.988,462.612,60.988z" data-original="#BFCFD6" class="" data-old_color="#BFCFD6"/><path style="fill:#FFFFFF" d="M74.094,301.895V97.313c0-2.424,1.965-4.389,4.389-4.389h355.034c2.424,0,4.389,1.965,4.389,4.389  v204.581c0,2.424-1.965,4.389-4.389,4.389H78.483C76.059,306.284,74.094,304.319,74.094,301.895z" data-original="#35E5E5" class="active-path" data-old_color="#ffffff"/><path style="fill:#BAEBFC" d="M433.517,92.924h-17.449v188.393c0,2.424-1.965,4.389-4.389,4.389H74.094v16.188  c0,2.424,1.965,4.389,4.389,4.389h355.034c2.424,0,4.389-1.965,4.389-4.389V97.314C437.906,94.889,435.941,92.924,433.517,92.924z" data-original="#28CEC9" class="" data-old_color="#BBEBFC"/><path style="fill:#092A48" d="M501.962,451.012H10.038C4.494,451.012,0,446.517,0,440.973v-19.601h512v19.601  C512,446.517,507.506,451.012,501.962,451.012z" data-original="#6F98A3" class="" data-old_color="#082844"/><polygon style="fill:#19586E" points="512,421.373 0,421.373 42.158,338.22 469.842,338.22 " data-original="#9EBECC" class="" data-old_color="#19566C"/><path style="fill:#175166" d="M469.842,338.22h-60.437l27.705,54.645c3.097,6.108-1.341,13.334-8.19,13.334H7.693L0,421.373h512  L469.842,338.22z" data-original="#86AEBC" class="" data-old_color="#185266"/><path style="fill:#00344B" d="M323.782,421.373l-10.085-36.568c-0.816-2.959-3.508-5.009-6.577-5.009H204.879  c-3.069,0-5.761,2.05-6.577,5.009l-10.085,36.568H323.782z" data-original="#DFEAEF" class="" data-old_color="#00354B"/><polygon style="fill:#00344B" points="192.402,406.2 188.218,421.373 323.782,421.373 319.598,406.2 " data-original="#BFCFD6" class="" data-old_color="#BFCFD6"/></g> </svg>
