<?xml version="1.0"?>
<svg xmlns="http://www.w3.org/2000/svg" xmlns:xlink="http://www.w3.org/1999/xlink" version="1.1" id="Capa_1" x="0px" y="0px" viewBox="0 0 512 512" style="enable-background:new 0 0 512 512;" xml:space="preserve" width="512px" height="512px" class=""><g><g>
	<rect x="8.533" y="8.533" style="fill:#F9FAFA" width="230.4" height="494.933" data-original="#FFFFFF" class="active-path" data-old_color="#F9F6F6"/>
	<rect x="273.067" y="8.533" style="fill:#FDF9F9" width="230.4" height="494.933" data-original="#A4C2F7" class="" data-old_color="#F6F6F6"/>
	<rect x="34.133" y="8.533" style="fill:#F8F9F9" width="443.733" height="494.933" data-original="#E3E7F2" class="" data-old_color="#F6F4F4"/>
	<circle style="fill:#DBE0E9" cx="409.6" cy="119.467" r="51.2" data-original="#7FACFA" class="" data-old_color="#D4D8E1"/>
	<ellipse style="fill:#FDF9F9" cx="396.8" cy="119.467" rx="38.4" ry="51.2" data-original="#A4C2F7" class="" data-old_color="#F6F6F6"/>
	<circle style="fill:#DBE0E9" cx="256" cy="247.467" r="51.2" data-original="#7FACFA" class="" data-old_color="#D4D8E1"/>
	<ellipse style="fill:#FDF9F9" cx="243.2" cy="247.467" rx="38.4" ry="51.2" data-original="#A4C2F7" class="" data-old_color="#F6F6F6"/>
	<circle style="fill:#DBE0E9" cx="102.4" cy="392.533" r="51.2" data-original="#7FACFA" class="" data-old_color="#D4D8E1"/>
	<ellipse style="fill:#FDF9F9" cx="89.6" cy="392.533" rx="38.4" ry="51.2" data-original="#A4C2F7" class="" data-old_color="#F6F6F6"/>
	<g>
		<path style="fill:#428DFF" d="M102.4,452.267c-32.99,0-59.733-26.744-59.733-59.733S69.41,332.8,102.4,332.8    s59.733,26.744,59.733,59.733C162.095,425.507,135.374,452.228,102.4,452.267L102.4,452.267z M102.4,349.867    c-23.564,0-42.667,19.103-42.667,42.667S78.836,435.2,102.4,435.2s42.667-19.103,42.667-42.667    C145.039,368.981,125.953,349.894,102.4,349.867z" data-original="#428DFF" class=""/>
		<path style="fill:#428DFF" d="M102.4,349.867c-2.263,0.001-4.434-0.898-6.035-2.499c-1.6-1.6-2.499-3.771-2.499-6.035V68.267    c0-4.713,3.821-8.533,8.533-8.533c4.713,0,8.533,3.821,8.533,8.533v273.067c0.001,2.263-0.898,4.434-2.499,6.035    C106.834,348.968,104.663,349.867,102.4,349.867L102.4,349.867z" data-original="#428DFF" class=""/>
		<path style="fill:#428DFF" d="M409.6,179.2c-32.99,0-59.733-26.744-59.733-59.733S376.61,59.733,409.6,59.733    s59.733,26.744,59.733,59.733C469.295,152.441,442.574,179.162,409.6,179.2L409.6,179.2z M409.6,76.8    c-23.564,0-42.667,19.103-42.667,42.667s19.103,42.667,42.667,42.667c23.564,0,42.667-19.103,42.667-42.667    C452.239,95.914,433.153,76.828,409.6,76.8z" data-original="#428DFF" class=""/>
		<path style="fill:#428DFF" d="M256,307.2c-32.99,0-59.733-26.744-59.733-59.733S223.01,187.733,256,187.733    c32.99,0,59.733,26.744,59.733,59.733C315.695,280.441,288.974,307.162,256,307.2L256,307.2z M256,204.8    c-23.564,0-42.667,19.103-42.667,42.667s19.103,42.667,42.667,42.667c23.564,0,42.667-19.103,42.667-42.667    C298.639,223.914,279.553,204.828,256,204.8L256,204.8z" data-original="#428DFF" class=""/>
		<path style="fill:#428DFF" d="M409.6,452.267c-2.263,0.001-4.434-0.898-6.035-2.499c-1.6-1.6-2.499-3.771-2.499-6.035V170.667    c0-4.713,3.821-8.533,8.533-8.533c4.713,0,8.533,3.821,8.533,8.533v273.067c0.001,2.263-0.898,4.434-2.499,6.035    C414.034,451.368,411.863,452.267,409.6,452.267L409.6,452.267z" data-original="#428DFF" class=""/>
		<path style="fill:#428DFF" d="M256,204.8c-2.263,0.001-4.434-0.898-6.035-2.499c-1.6-1.6-2.499-3.771-2.499-6.035v-128    c0-4.713,3.821-8.533,8.533-8.533c4.713,0,8.533,3.821,8.533,8.533v128c0.001,2.263-0.898,4.434-2.499,6.035    C260.434,203.902,258.263,204.801,256,204.8L256,204.8z" data-original="#428DFF" class=""/>
		<path style="fill:#428DFF" d="M256,452.267c-2.263,0.001-4.434-0.898-6.035-2.499c-1.6-1.6-2.499-3.771-2.499-6.035V298.667    c0-4.713,3.821-8.533,8.533-8.533c4.713,0,8.533,3.82,8.533,8.533v145.067c0.001,2.263-0.898,4.434-2.499,6.035    C260.434,451.368,258.263,452.267,256,452.267L256,452.267z" data-original="#428DFF" class=""/>
		<path style="fill:#428DFF" d="M503.467,512H8.533c-2.263,0.001-4.434-0.898-6.035-2.499c-1.6-1.6-2.499-3.771-2.499-6.035V8.533    C-0.001,6.27,0.898,4.099,2.499,2.499S6.27-0.001,8.533,0h494.933c2.263-0.001,4.434,0.898,6.035,2.499    c1.6,1.6,2.499,3.771,2.499,6.035v494.933c0.001,2.263-0.898,4.434-2.499,6.035C507.901,511.102,505.73,512.001,503.467,512    L503.467,512z M17.067,494.933h477.867V17.067H17.067V494.933z" data-original="#428DFF" class=""/>
	</g>
</g></g> </svg>
