<svg height="480pt" viewBox="-48 0 480 480.19829" width="480pt" xmlns="http://www.w3.org/2000/svg"><g fill="#787d82"><path d="m72.097656 320.003906c-4.417968 0-8-3.582031-8-8v-24c0-4.417968 3.582032-8 8-8 4.417969 0 8 3.582032 8 8v24c0 4.417969-3.582031 8-8 8zm0 0"/><path d="m72.097656 224.003906c-4.417968 0-8-3.582031-8-8v-24c0-4.417968 3.582032-8 8-8 4.417969 0 8 3.582032 8 8v24c0 4.417969-3.582031 8-8 8zm0 0"/><path d="m72.097656 128.003906c-4.417968 0-8-3.582031-8-8v-24c0-4.417968 3.582032-8 8-8 4.417969 0 8 3.582032 8 8v24c0 4.417969-3.582031 8-8 8zm0 0"/><path d="m312.097656 320.003906c-4.417968 0-8-3.582031-8-8v-24c0-4.417968 3.582032-8 8-8 4.417969 0 8 3.582032 8 8v24c0 4.417969-3.582031 8-8 8zm0 0"/><path d="m312.097656 224.003906c-4.417968 0-8-3.582031-8-8v-24c0-4.417968 3.582032-8 8-8 4.417969 0 8 3.582032 8 8v24c0 4.417969-3.582031 8-8 8zm0 0"/><path d="m312.097656 128.003906c-4.417968 0-8-3.582031-8-8v-24c0-4.417968 3.582032-8 8-8 4.417969 0 8 3.582032 8 8v24c0 4.417969-3.582031 8-8 8zm0 0"/></g><path d="m192.097656 296.003906c-2.121094-.003906-4.15625-.84375-5.65625-2.34375l-48-48c-3.03125-3.140625-2.988281-8.128906.097656-11.214844 3.085938-3.085937 8.078126-3.128906 11.214844-.097656l41.808594 41.804688 34.402344-41.269532c1.804687-2.273437 4.699218-3.394531 7.566406-2.921874 2.863281.472656 5.25 2.460937 6.230469 5.191406.980469 2.734375.402343 5.785156-1.511719 7.96875l-40 48c-1.4375 1.730468-3.535156 2.769531-5.78125 2.875zm0 0" fill="#3b869e"/><path d="m192.097656 248.003906c-2.121094-.003906-4.15625-.84375-5.65625-2.34375l-48-48c-3.03125-3.140625-2.988281-8.128906.097656-11.214844 3.085938-3.085937 8.078126-3.128906 11.214844-.097656l41.808594 41.804688 34.402344-41.269532c2.859375-3.269531 7.804687-3.660156 11.140625-.878906 3.335937 2.78125 3.84375 7.714844 1.144531 11.117188l-40 48c-1.4375 1.730468-3.535156 2.769531-5.78125 2.875zm0 0" fill="#3b869e"/><path d="m192.097656 200.003906c-2.121094-.003906-4.15625-.84375-5.65625-2.34375l-48-48c-3.03125-3.140625-2.988281-8.128906.097656-11.214844 3.085938-3.085937 8.078126-3.128906 11.214844-.097656l41.808594 41.804688 34.402344-41.269532c2.859375-3.269531 7.804687-3.660156 11.140625-.878906 3.335937 2.78125 3.84375 7.714844 1.144531 11.117188l-40 48c-1.4375 1.730468-3.535156 2.769531-5.78125 2.875zm0 0" fill="#3b869e"/><path d="m192.097656 152.003906c-2.121094-.003906-4.15625-.84375-5.65625-2.34375l-48-48c-3.03125-3.140625-2.988281-8.128906.097656-11.214844 3.085938-3.085937 8.078126-3.128906 11.214844-.097656l41.808594 41.804688 34.402344-41.269532c2.859375-3.269531 7.804687-3.660156 11.140625-.878906 3.335937 2.78125 3.84375 7.714844 1.144531 11.117188l-40 48c-1.4375 1.730468-3.535156 2.769531-5.78125 2.875zm0 0" fill="#3b869e"/><path d="m192.097656 104.003906c-2.121094-.003906-4.15625-.84375-5.65625-2.34375l-48-48c-2.078125-2.011718-2.910156-4.984375-2.179687-7.78125s2.917969-4.980468 5.714843-5.714844c2.796876-.730468 5.769532.101563 7.777344 2.183594l41.808594 41.804688 34.402344-41.269532c1.804687-2.273437 4.699218-3.394531 7.566406-2.921874 2.863281.472656 5.25 2.460937 6.230469 5.191406.980469 2.734375.402343 5.785156-1.511719 7.96875l-40 48c-1.4375 1.730468-3.535156 2.769531-5.78125 2.875zm0 0" fill="#3b869e"/><path d="m192.097656 384.003906c-2.925781 0-5.621094-1.601562-7.023437-4.167968l-48-88c-1.351563-2.480469-1.296875-5.488282.144531-7.917969 1.441406-2.429688 4.054688-3.917969 6.878906-3.914063h96c2.824219-.003906 5.441406 1.484375 6.882813 3.914063 1.441406 2.429687 1.496093 5.4375.144531 7.917969l-48 88c-1.402344 2.566406-4.097656 4.167968-7.027344 4.167968zm-34.519531-88 34.519531 63.292969 34.523438-63.292969zm0 0" fill="#3b869e"/><path d="m304.097656 480.003906c-3.402344-.003906-6.429687-2.15625-7.550781-5.371094l-64-184c-.296875-.84375-.445313-1.734374-.449219-2.628906v-232h-80v232c0 .894532-.152344 1.785156-.445312 2.628906l-64 184c-1.53125 4.0625-6.023438 6.164063-10.121094 4.734376-4.097656-1.425782-6.308594-5.863282-4.984375-9.996094l63.550781-182.722656v-238.644532c0-4.417968 3.582032-8 8-8h96c4.417969 0 8 3.582032 8 8v238.644532l63.554688 182.722656c.851562 2.445312.464844 5.152344-1.035156 7.265625-1.5 2.109375-3.929688 3.363281-6.519532 3.367187zm0 0" fill="#5d9aa4"/><path d="m312.097656 296.003906h-240c-3.523437 0-6.632812-2.308594-7.65625-5.683594-1.023437-3.371093.285156-7.019531 3.21875-8.972656l72-48c1.316406-.875 2.859375-1.34375 4.4375-1.34375h96c1.582032 0 3.125.46875 4.441406 1.34375l72 48c2.933594 1.953125 4.242188 5.601563 3.21875 8.972656-1.023437 3.375-4.132812 5.683594-7.660156 5.683594zm-213.597656-16h187.199219l-48-32h-91.199219zm0 0" fill="#5d9aa4"/><path d="m312.097656 200.003906h-240c-3.523437 0-6.632812-2.308594-7.65625-5.683594-1.023437-3.371093.285156-7.019531 3.21875-8.972656l72-48c1.316406-.875 2.859375-1.34375 4.4375-1.34375h96c1.582032 0 3.125.46875 4.441406 1.34375l72 48c2.933594 1.953125 4.242188 5.601563 3.21875 8.972656-1.023437 3.375-4.132812 5.683594-7.660156 5.683594zm-213.597656-16h187.199219l-48-32h-91.199219zm0 0" fill="#5d9aa4"/><path d="m312.097656 104.003906h-240c-3.523437 0-6.632812-2.308594-7.65625-5.683594-1.023437-3.371093.285156-7.019531 3.21875-8.972656l72-48c1.316406-.875 2.859375-1.34375 4.4375-1.34375h96c1.582032 0 3.125.46875 4.441406 1.34375l72 48c2.933594 1.953125 4.242188 5.601563 3.21875 8.972656-1.023437 3.375-4.132812 5.683594-7.660156 5.683594zm-213.597656-16h187.199219l-48-32h-91.199219zm0 0" fill="#5d9aa4"/><path d="m192.097656 56.003906h-48c-3.800781 0-7.078125-2.675781-7.839844-6.402344l-8-40c-.640624-3.214843.746094-6.5 3.5-8.28125 2.753907-1.78125 6.316407-1.703124 8.988282.203126l56 40c2.804687 2.027343 3.984375 5.628906 2.925781 8.925781-1.054687 3.292969-4.113281 5.535156-7.574219 5.554687zm-41.4375-16h16.472656l-19.203124-13.730468zm0 0" fill="#5d9aa4"/><path d="m240.097656 56.003906h-48c-3.476562 0-6.558594-2.25-7.617187-5.5625-1.0625-3.3125.140625-6.929687 2.96875-8.949218l56-40c2.679687-1.914063 6.25-1.992188 9.011719-.199219 2.757812 1.789062 4.136718 5.085937 3.476562 8.308593l-8 40c-.757812 3.726563-4.035156 6.402344-7.839844 6.402344zm-23.03125-16h16.472656l2.742188-13.730468zm0 0" fill="#5d9aa4"/><path d="m304.097656 480.003906c-1.910156 0-3.757812-.6875-5.207031-1.929687l-106.792969-91.535157-106.789062 91.535157c-2.152344 1.988281-5.21875 2.640625-7.996094 1.703125-2.773438-.941406-4.816406-3.324219-5.316406-6.210938-.5-2.886718.617187-5.816406 2.910156-7.636718l112-96c2.996094-2.558594 7.40625-2.558594 10.402344 0l112 96c2.539062 2.179687 3.453125 5.710937 2.292968 8.847656-1.164062 3.140625-4.15625 5.226562-7.503906 5.226562zm0 0" fill="#3b869e"/><path d="m264.097656 384.003906h-144c-4.417968 0-8-3.582031-8-8 0-4.417968 3.582032-8 8-8h144c4.417969 0 8 3.582032 8 8 0 4.417969-3.582031 8-8 8zm0 0" fill="#5d9aa4"/><path d="m376.097656 480.003906h-368c-4.417968 0-7.9999998-3.582031-7.9999998-8 0-4.417968 3.5820318-8 7.9999998-8h368c4.417969 0 8 3.582032 8 8 0 4.417969-3.582031 8-8 8zm0 0" fill="#5e8569"/></svg>