<svg height="511pt" viewBox="1 -46 511.99977 511" width="511pt" xmlns="http://www.w3.org/2000/svg"><path d="m98.804688 181.621094c15.933593 30.804687 28.097656 51.640625 58.195312 81.738281 30.101562 30.097656 50.929688 42.253906 81.75 58.1875l51.847656-51.847656c5.355469-5.355469 14.042969-5.355469 19.398438 0l76.652344 76.652343c5.355468 5.355469 5.355468 14.042969 0 19.398438l-20.605469 20.605469c-59.929688 59.929687-176.488281 40.542969-274.535157-57.503907-98.054687-98.054687-117.441406-214.613281-57.511718-274.539062l20.605468-20.605469c5.355469-5.359375 14.042969-5.359375 19.402344 0l76.65625 76.65625c5.359375 5.359375 5.359375 14.046875 0 19.402344zm0 0" fill="#ffe14d"/><path d="m111.460938 308.894531c-98.050782-98.050781-117.4375-214.609375-57.511719-274.539062l-19.953125 19.953125c-59.929688 59.929687-40.539063 176.488281 57.511718 274.539062 98.050782 98.050782 214.609376 117.441406 274.539063 57.511719l19.953125-19.953125c-59.929688 59.925781-176.488281 40.539062-274.539062-57.511719zm0 0" fill="#ffbe1d"/><path d="m74.003906 33.707031 76.65625 76.65625c5.359375 5.359375 5.359375 14.046875 0 19.402344l-20.605468 20.605469-96.058594-96.058594 20.605468-20.605469c5.355469-5.359375 14.042969-5.359375 19.402344 0zm0 0" fill="#e6e6e6"/><path d="m309.996094 269.699219 76.652344 76.652343c5.355468 5.355469 5.355468 14.042969 0 19.402344l-20.605469 20.605469-96.054688-96.054687 20.605469-20.605469c5.359375-5.355469 14.046875-5.355469 19.402344 0zm0 0" fill="#e6e6e6"/><path d="m120.316406 99.421875-20.601562 20.605469 30.34375 30.34375 20.601562-20.605469c5.359375-5.355469 5.359375-14.042969 0-19.402344l-30.34375-30.34375c5.359375 5.359375 5.359375 14.046875 0 19.402344zm0 0" fill="#ccc"/><path d="m486.5625.5h-256.117188c-14.050781 0-25.4375 11.386719-25.4375 25.4375v119.34375c0 14.050781 11.386719 25.4375 25.4375 25.4375h14.890626v58.382812l58.382812-58.382812h182.84375c14.050781 0 25.4375-11.386719 25.4375-25.4375v-119.34375c0-14.050781-11.386719-25.4375-25.4375-25.4375zm0 0" fill="#32cc77"/><g fill="#e6e6e6"><path d="m274.835938 92.980469c9.269531-6.347657 20.8125-14.246094 20.8125-27.757813 0-6.410156-2.597657-11.871094-7.503907-15.796875-4.339843-3.472656-10.324219-5.464843-16.414062-5.464843-11.246094 0-23.199219 6.914062-23.199219 19.730468 0 5.652344 2.378906 8.398438 7.273438 8.398438 5.523437 0 8.503906-3.066406 8.503906-5.949219 0-4.78125 2.742187-7.527344 7.523437-7.527344 5.632813 0 7.628907 3.835938 7.628907 7.117188 0 6.074219-7.164063 11.332031-14.75 16.898437-8.554688 6.28125-17.40625 12.777344-17.40625 21.28125v9.902344c0 3.070312 4.1875 5.03125 7.070312 5.03125h36.34375c2.625 0 4.929688-3.351562 4.929688-7.175781 0-3.710938-2.304688-6.96875-4.929688-6.96875h-26.617188v-.789063c.003907-3.582031 4.976563-6.988281 10.734376-10.929687zm0 0"/><path d="m351.257812 88.160156h-4.261718v-7.011718c0-2.273438-2.117188-4.929688-8.089844-4.929688s-8.09375 2.652344-8.09375 4.929688v7.011718h-8.4375l17.976562-36.054687c.269532-.632813.519532-1.3125.519532-1.992188 0-1.667969-1.066406-3.265625-3.007813-4.5-1.578125-1.003906-3.574219-1.652343-5.082031-1.652343-2.96875 0-5.367188 1.472656-6.753906 4.152343l-23.578125 46.242188c-.722657 1.328125-.832031 2.527343-.832031 3.125 0 3.375 2.183593 5.640625 5.4375 5.640625h23.757812v10.691406c0 2.421875 2.53125 5.03125 8.09375 5.03125 5.558594 0 8.09375-2.609375 8.09375-5.03125v-10.691406h4.257812c2.539063 0 5.03125-3.703125 5.03125-7.480469-.003906-5.136719-2.609374-7.480469-5.03125-7.480469zm0 0"/><path d="m404.339844 39.773438c-2.015625 0-3.621094.957031-4.40625 2.625l-35.832032 73.601562c-.332031.664062-.523437 1.390625-.523437 1.996094 0 2.675781 2.351563 5.542968 5.847656 5.542968 2.054688 0 3.988281-1.082031 4.710938-2.628906l35.933593-73.597656c.347657-.699219.421876-1.472656.421876-2 0-3.3125-3.179688-5.539062-6.152344-5.539062zm0 0"/><path d="m462.628906 43.960938h-36.238281c-3.570313 0-7.074219 2.488281-7.074219 5.027343v15.824219c0 2.773438 3.585938 5.03125 7.992188 5.03125 4.441406 0 8.195312-2.304688 8.195312-5.03125v-6.710938h18.011719v6.980469l-25.09375 43.460938c-.507813.910156-.730469 1.75-.730469 2.71875 0 4.828125 5.394532 8.191406 10.234375 8.191406 2.304688 0 3.8125-.722656 4.609375-2.210937l23.886719-45.734376c.769531-1.441406 3.28125-6.410156 3.28125-9.757812v-12.761719c0-2.195312-3.429687-5.027343-7.074219-5.027343zm0 0"/></g></svg>