<svg height="512pt" viewBox="-1 0 512 512.0001" width="512pt" xmlns="http://www.w3.org/2000/svg"><path d="m258.277344 129.144531c-.003906 12.75-30.003906 20.925781-33.453125 32.472657-3.609375 12.078124 16.753906 35.445312 9.980469 45.5625-6.953126 10.382812-36.269532.296874-45.894532 7.914062-9.699218 7.671875-6.878906 38.578125-18.605468 42.71875-11.4375 4.039062-28.460938-21.691406-41.179688-21.695312-12.722656 0-29.753906 25.726562-41.191406 21.683593-11.722656-4.144531-8.894532-35.050781-18.589844-42.726562-9.625-7.621094-38.945312 2.457031-45.894531-7.929688-6.769531-10.117187 13.597656-33.480469 9.992187-45.558593-3.445312-11.546876-33.441406-19.734376-33.441406-32.484376.00390625-12.753906 30.003906-20.929687 33.453125-32.476562 3.609375-12.074219-16.753906-35.445312-9.980469-45.5625 6.953125-10.382812 36.269532-.296875 45.894532-7.914062 9.699218-7.667969 6.878906-38.578126 18.605468-42.71875 11.4375-4.039063 28.460938 21.695312 41.179688 21.695312 12.722656.003906 29.753906-25.722656 41.1875-21.679688 11.726562 4.144532 8.898437 35.050782 18.59375 42.726563 9.625 7.617187 38.945312-2.460937 45.894531 7.929687 6.769531 10.117188-13.597656 33.480469-9.992187 45.558594 3.445312 11.542969 33.441406 19.730469 33.441406 32.484375zm0 0" fill="#f7ca00"/><path d="m194.964844 129.121094c0 36.355468-29.472656 65.828125-65.828125 65.828125-36.351563 0-65.824219-29.472657-65.824219-65.828125 0-36.355469 29.472656-65.824219 65.824219-65.824219 36.355469 0 65.828125 29.46875 65.828125 65.824219zm0 0" fill="#ffe469"/><path d="m129.148438 63.296875c-7.9375 0-15.542969 1.402344-22.589844 3.976563 25.234375 9.214843 43.25 33.433593 43.246094 61.859374-.003907 28.417969-18.019532 52.625-43.246094 61.839844 7.039062 2.570313 14.640625 3.976563 22.570312 3.976563 36.355469.003906 65.832032-29.460938 65.835938-65.816407.003906-36.355468-29.460938-65.832031-65.816406-65.835937zm0 0" fill="#ffda30"/><path d="m264.820312 378.992188h34.007813v133.007812h-34.007813zm0 0" fill="#f0f0f0"/><path d="m276.25 378.992188h22.578125v133.007812h-22.578125zm0 0" fill="#e8e8e8"/><path d="m347.210938 512h-130.769532c0-16.808594 13.625-30.433594 30.433594-30.433594h69.902344c16.808594 0 30.433594 13.625 30.433594 30.433594zm0 0" fill="#d9d9d9"/><path d="m316.777344 481.566406h-33.871094c16.808594 0 30.433594 13.625 30.433594 30.433594h33.871094c0-16.808594-13.625-30.433594-30.433594-30.433594zm0 0" fill="#c9c9c9"/><path d="m250.148438 189.414062h-44.921876c-8.480468 0-16.097656 5.09375-19.21875 12.847657l-39.515624 98.207031h58.972656zm0 0" fill="#89c8fd"/><path d="m339.824219 300.46875 44.59375-111.054688h-67.105469l-44.507812 111.054688zm0 0" fill="#89c8fd"/><g fill="#26a5fd"><path d="m146.492188 300.46875-39.09375 97.15625c-2.683594 6.667969 2.316406 13.898438 9.609374 13.898438h43.777344l44.683594-111.054688zm0 0"/><path d="m406.429688 300.46875 44.875-111.054688h-66.886719l-44.59375 111.054688zm0 0"/><path d="m272.804688 300.46875 44.507812-111.054688h-67.164062l-44.683594 111.054688zm0 0"/></g><path d="m205.464844 300.46875-44.679688 111.054688h67.511719l44.507813-111.054688zm0 0" fill="#89c8fd"/><path d="m499.371094 189.414062h-48.066406l-44.875 111.054688h63.453124l39.09375-97.152344c2.6875-6.671875-2.3125-13.902344-9.605468-13.902344zm0 0" fill="#89c8fd"/><path d="m499.371094 189.414062h-33.871094c7.292969 0 12.289062 7.230469 9.605469 13.902344l-39.089844 97.152344h33.871094l39.089843-97.152344c2.6875-6.671875-2.3125-13.902344-9.605468-13.902344zm0 0" fill="#60b6ff"/><path d="m361.554688 411.523438h49.597656c8.476562 0 16.097656-5.089844 19.214844-12.84375l39.519531-98.210938h-63.453125zm0 0" fill="#26a5fd"/><path d="m436.015625 300.46875-39.519531 98.210938c-3.117188 7.753906-10.738282 12.84375-19.214844 12.84375h33.871094c8.476562 0 16.09375-5.089844 19.214844-12.84375l39.519531-98.210938zm0 0" fill="#0181fb"/><path d="m339.824219 300.46875-44.59375 111.054688h66.324219l44.875-111.054688zm0 0" fill="#89c8fd"/><path d="m272.804688 300.46875-44.507813 111.054688h66.933594l44.59375-111.054688zm0 0" fill="#26a5fd"/></svg>